#define bat0_width 16
#define bat0_height 16
static unsigned char bat0_bits[] = {
   0x00, 0x00, 0x00, 0x00, 0x00, 0x00, 0xfe, 0xff, 0x02, 0x80, 0x03, 0xa0,
   0x03, 0xa0, 0x03, 0xa0, 0x03, 0xa0, 0x03, 0xa0, 0x03, 0xa0, 0x02, 0x80,
   0xfe, 0xff, 0x00, 0x00, 0x00, 0x00, 0x00, 0x00 };
