#define cpu_width 16
#define cpu_height 16
static unsigned char cpu_bits[] = {
   0x00, 0x00, 0xfe, 0x7f, 0x02, 0x40, 0x02, 0x40, 0xe2, 0x47, 0xf2, 0x4f,
   0xf2, 0x4f, 0xf2, 0x4f, 0xf2, 0x4f, 0xf2, 0x4f, 0xf2, 0x4f, 0xe2, 0x47,
   0x06, 0x40, 0x0e, 0x40, 0xfe, 0x7f, 0x00, 0x00 };
