#define fs_width 16
#define fs_height 16
static unsigned char fs_bits[] = {
   0x00, 0x00, 0x3c, 0x00, 0x7e, 0x00, 0xc2, 0x3f, 0x02, 0x40, 0x02, 0x40,
   0x02, 0x40, 0x02, 0x40, 0x02, 0x40, 0x02, 0x40, 0x02, 0x40, 0x02, 0x40,
   0x02, 0x40, 0xfc, 0x3f, 0x00, 0x00, 0x00, 0x00 };
