#define gpu_width 16
#define gpu_height 16
static unsigned char gpu_bits[] = {
   0x00, 0x00, 0x03, 0x00, 0x02, 0x00, 0xfe, 0x7f, 0x03, 0x80, 0x03, 0x9e,
   0x03, 0xa1, 0x03, 0xad, 0x02, 0xad, 0x03, 0xa1, 0x03, 0x9e, 0x03, 0x80,
   0xfe, 0xff, 0xb2, 0x1f, 0x02, 0x00, 0x00, 0x00 };
