#define hdd_width 16
#define hdd_height 16
static unsigned char hdd_bits[] = {
   0x00, 0x00, 0xf8, 0x1f, 0x04, 0x20, 0xd4, 0x2b, 0xe4, 0x27, 0xf4, 0x2f,
   0x74, 0x2e, 0x74, 0x2e, 0xf4, 0x2f, 0xb4, 0x27, 0xd4, 0x23, 0x7c, 0x20,
   0x7c, 0x20, 0x7c, 0x28, 0x04, 0x20, 0xf8, 0x1f };
