#define im_width 16
#define im_height 16
static unsigned char im_bits[] = {
   0x00, 0x00, 0xfe, 0x3f, 0x01, 0x40, 0x01, 0x40, 0x01, 0x40, 0x01, 0x40,
   0x01, 0x40, 0x01, 0x40, 0x01, 0x40, 0x01, 0x40, 0x8e, 0x3f, 0x48, 0x00,
   0x28, 0x00, 0x18, 0x00, 0x08, 0x00, 0x00, 0x00 };
