#define kbd_width 16
#define kbd_height 16
static unsigned char kbd_bits[] = {
   0x00, 0x00, 0x00, 0x00, 0x00, 0x00, 0xfe, 0xff, 0xaa, 0xaa, 0xfe, 0xff,
   0xaa, 0xaa, 0xfe, 0xff, 0xaa, 0xaa, 0xfe, 0xff, 0x0a, 0xa0, 0xfe, 0xff,
   0x00, 0x00, 0x00, 0x00, 0x00, 0x00, 0x00, 0x00 };
