#define mail_width 16
#define mail_height 16
static unsigned char mail_bits[] = {
   0x00, 0x00, 0xfc, 0x3f, 0x06, 0x60, 0x0a, 0x50, 0x12, 0x48, 0x22, 0x44,
   0x42, 0x42, 0x82, 0x41, 0x02, 0x40, 0x02, 0x40, 0x02, 0x40, 0x02, 0x40,
   0xfc, 0x3f, 0x00, 0x00, 0x00, 0x00, 0x00, 0x00 };
