#define music_width 16
#define music_height 16
static unsigned char music_bits[] = {
   0x00, 0x00, 0x10, 0x04, 0x10, 0x04, 0x10, 0x05, 0x14, 0x15, 0x14, 0x15,
   0x55, 0x55, 0x55, 0x55, 0x55, 0x55, 0x14, 0x15, 0x14, 0x15, 0x10, 0x05,
   0x10, 0x04, 0x10, 0x04, 0x00, 0x04, 0x00, 0x00 };
