#define net_wired_width 16
#define net_wired_height 16
static unsigned char net_wired_bits[] = {
   0xff, 0x00, 0x81, 0x00, 0x81, 0x3f, 0x81, 0x20, 0xff, 0x20, 0x18, 0x20,
   0xff, 0xf8, 0x00, 0x88, 0x00, 0xf8, 0xff, 0x88, 0x81, 0xf8, 0x81, 0x8f,
   0x81, 0xf8, 0xff, 0xf8, 0x18, 0xb8, 0xff, 0xf8 };
