#define vol_mute_width 16
#define vol_mute_height 16
static unsigned char vol_mute_bits[] = {
   0x00, 0x00, 0x00, 0x00, 0x80, 0x00, 0xc0, 0x00, 0xa0, 0x00, 0x9e, 0x84,
   0x82, 0x48, 0x82, 0x30, 0x82, 0x30, 0x82, 0x48, 0x9e, 0x84, 0xa0, 0x00,
   0xc0, 0x00, 0x80, 0x00, 0x00, 0x00, 0x00, 0x00 };
