#define vol_hi_width 16
#define vol_hi_height 16
static unsigned char vol_hi_bits[] = {
   0x00, 0x00, 0x00, 0x00, 0x80, 0x10, 0xc0, 0x20, 0xa0, 0x48, 0x9e, 0x50,
   0x82, 0x54, 0x82, 0x54, 0x82, 0x54, 0x82, 0x54, 0x9e, 0x50, 0xa0, 0x48,
   0xc0, 0x20, 0x80, 0x10, 0x00, 0x00, 0x00, 0x00 };
